<svg width="38" height="40" viewBox="0 0 38 40" fill="none" xmlns="http://www.w3.org/2000/svg">
<rect x="1" y="1" width="36" height="38" rx="4" stroke="#0066FF" stroke-width="2"/>
<path d="M6.48047 24V16.8906H8.66797C9.29297 16.8906 9.85124 17.0322 10.3428 17.3154C10.8376 17.5954 11.2233 17.9958 11.5 18.5166C11.7767 19.0342 11.915 19.6234 11.915 20.2842V20.6113C11.915 21.2721 11.7783 21.8597 11.5049 22.374C11.2347 22.8883 10.8522 23.2871 10.3574 23.5703C9.86263 23.8535 9.30436 23.9967 8.68262 24H6.48047ZM7.94531 18.0771V22.8232H8.65332C9.22624 22.8232 9.66406 22.6361 9.9668 22.2617C10.2695 21.8874 10.4242 21.3519 10.4307 20.6553V20.2793C10.4307 19.5566 10.2809 19.0098 9.98145 18.6387C9.68197 18.2643 9.24414 18.0771 8.66797 18.0771H7.94531ZM18.8242 20.6064C18.8242 21.3063 18.7005 21.9199 18.4531 22.4473C18.2057 22.9746 17.8509 23.3815 17.3887 23.668C16.9297 23.9544 16.4023 24.0977 15.8066 24.0977C15.2174 24.0977 14.6917 23.9561 14.2295 23.6729C13.7673 23.3896 13.4092 22.986 13.1553 22.4619C12.9014 21.9346 12.7728 21.3291 12.7695 20.6455V20.2939C12.7695 19.5941 12.8949 18.9788 13.1455 18.4482C13.3994 17.9144 13.7559 17.5059 14.2148 17.2227C14.6771 16.9362 15.2044 16.793 15.7969 16.793C16.3893 16.793 16.915 16.9362 17.374 17.2227C17.8363 17.5059 18.1927 17.9144 18.4434 18.4482C18.6973 18.9788 18.8242 19.5924 18.8242 20.2891V20.6064ZM17.3398 20.2842C17.3398 19.5387 17.2064 18.9723 16.9395 18.585C16.6725 18.1976 16.2917 18.0039 15.7969 18.0039C15.3053 18.0039 14.9261 18.196 14.6592 18.5801C14.3923 18.9609 14.2572 19.5208 14.2539 20.2598V20.6064C14.2539 21.3324 14.3874 21.8955 14.6543 22.2959C14.9212 22.6963 15.3053 22.8965 15.8066 22.8965C16.2982 22.8965 16.6758 22.7044 16.9395 22.3203C17.2031 21.9329 17.3366 21.3698 17.3398 20.6309V20.2842ZM25.4697 21.6318C25.4144 22.3968 25.1312 22.999 24.6201 23.4385C24.1123 23.8779 23.4417 24.0977 22.6084 24.0977C21.6969 24.0977 20.9792 23.7917 20.4551 23.1797C19.9342 22.5645 19.6738 21.7214 19.6738 20.6504V20.2158C19.6738 19.5322 19.7943 18.93 20.0352 18.4092C20.276 17.8883 20.6195 17.4896 21.0654 17.2129C21.5146 16.9329 22.0355 16.793 22.6279 16.793C23.4482 16.793 24.109 17.0127 24.6104 17.4521C25.1117 17.8916 25.4014 18.5085 25.4795 19.3027H24.0146C23.9788 18.8438 23.8503 18.5117 23.6289 18.3066C23.4108 18.0983 23.0771 17.9941 22.6279 17.9941C22.1396 17.9941 21.7734 18.1699 21.5293 18.5215C21.2884 18.8698 21.1647 19.4118 21.1582 20.1475V20.6846C21.1582 21.4528 21.2738 22.0143 21.5049 22.3691C21.7393 22.724 22.1071 22.9014 22.6084 22.9014C23.0609 22.9014 23.3978 22.7988 23.6191 22.5938C23.8438 22.3854 23.9723 22.0648 24.0049 21.6318H25.4697ZM28.9756 19.3418L30.3086 16.8906H31.9932L29.9229 20.416L32.0469 24H30.3428L28.9756 21.5098L27.6084 24H25.9043L28.0283 20.416L25.958 16.8906H27.6426L28.9756 19.3418Z" fill="#0066FF"/>
</svg>
