<svg width="38" height="40" viewBox="0 0 38 40" fill="none" xmlns="http://www.w3.org/2000/svg">
<rect x="1" y="1" width="36" height="38" rx="4" stroke="#5D00F5" stroke-width="2"/>
<path d="M7.89844 16.0469L10.4551 23.2656L12.998 16.0469H15.6914V26H13.6338V23.2793L13.8389 18.583L11.1523 26H9.74414L7.06445 18.5898L7.26953 23.2793V26H5.21875V16.0469H7.89844ZM19.5332 22.4932V26H17.4824V16.0469H21.3652C22.1126 16.0469 22.7689 16.1836 23.334 16.457C23.9036 16.7305 24.3411 17.1201 24.6465 17.626C24.9518 18.1273 25.1045 18.6992 25.1045 19.3418C25.1045 20.3171 24.7695 21.0872 24.0996 21.6523C23.4342 22.2129 22.5114 22.4932 21.3311 22.4932H19.5332ZM19.5332 20.832H21.3652C21.9076 20.832 22.32 20.7044 22.6025 20.4492C22.8896 20.194 23.0332 19.8294 23.0332 19.3555C23.0332 18.8678 22.8896 18.4736 22.6025 18.1729C22.3154 17.8721 21.9189 17.7171 21.4131 17.708H19.5332V20.832ZM32.1523 22.2539H33.2803V23.8467H32.1523V26H30.1768V23.8467H26.0957L26.0068 22.6025L30.1562 16.0469H32.1523V22.2539ZM27.9756 22.2539H30.1768V18.7402L30.0469 18.9658L27.9756 22.2539Z" fill="#5D00F5"/>
</svg>
