<svg width="38" height="40" viewBox="0 0 38 40" fill="none" xmlns="http://www.w3.org/2000/svg">
<rect x="1" y="1" width="36" height="38" rx="4" stroke="#EB236B" stroke-width="2"/>
<path d="M7.70703 22.4932V26H5.65625V16.0469H9.53906C10.2865 16.0469 10.9427 16.1836 11.5078 16.457C12.0775 16.7305 12.515 17.1201 12.8203 17.626C13.1257 18.1273 13.2783 18.6992 13.2783 19.3418C13.2783 20.3171 12.9434 21.0872 12.2734 21.6523C11.6081 22.2129 10.6852 22.4932 9.50488 22.4932H7.70703ZM7.70703 20.832H9.53906C10.0814 20.832 10.4938 20.7044 10.7764 20.4492C11.0635 20.194 11.207 19.8294 11.207 19.3555C11.207 18.8678 11.0635 18.4736 10.7764 18.1729C10.4893 17.8721 10.0928 17.7171 9.58691 17.708H7.70703V20.832ZM22.7871 26H20.7363L16.7441 19.4512V26H14.6934V16.0469H16.7441L20.7432 22.6094V16.0469H22.7871V26ZM32.4531 24.7422C32.084 25.1842 31.5622 25.5283 30.8877 25.7744C30.2132 26.016 29.4658 26.1367 28.6455 26.1367C27.7842 26.1367 27.0277 25.9499 26.376 25.5762C25.7288 25.1979 25.2275 24.651 24.8721 23.9355C24.5212 23.2201 24.3411 22.3792 24.332 21.4131V20.7363C24.332 19.7428 24.4984 18.8838 24.8311 18.1592C25.1683 17.43 25.6514 16.874 26.2803 16.4912C26.9137 16.1038 27.6543 15.9102 28.502 15.9102C29.6823 15.9102 30.6051 16.1927 31.2705 16.7578C31.9359 17.3184 32.3301 18.1364 32.4531 19.2119H30.457C30.3659 18.6423 30.1631 18.2253 29.8486 17.9609C29.5387 17.6966 29.1104 17.5645 28.5635 17.5645C27.8662 17.5645 27.3353 17.8265 26.9707 18.3506C26.6061 18.8747 26.4215 19.654 26.417 20.6885V21.3242C26.417 22.3678 26.6152 23.1562 27.0117 23.6895C27.4082 24.2227 27.9893 24.4893 28.7549 24.4893C29.5251 24.4893 30.0742 24.3252 30.4023 23.9971V22.2812H28.5361V20.7705H32.4531V24.7422Z" fill="#EB236B"/>
</svg>
