<svg width="40" height="40" viewBox="0 0 40 40" fill="none" xmlns="http://www.w3.org/2000/svg">
<rect x="1" y="1" width="38" height="38" rx="4" stroke="#4BD0A0" stroke-width="2"/>
<path d="M11.8994 19.4785L13.7656 16.0469H16.124L13.2256 20.9824L16.1992 26H13.8135L11.8994 22.5137L9.98535 26H7.59961L10.5732 20.9824L7.6748 16.0469H10.0332L11.8994 19.4785ZM19.2891 24.3525H23.6436V26H17.2383V16.0469H19.2891V24.3525ZM29.9873 23.3887C29.9873 23.0013 29.8506 22.7051 29.5771 22.5C29.3037 22.2904 28.8115 22.0716 28.1006 21.8438C27.3896 21.6113 26.8268 21.3835 26.4121 21.1602C25.2819 20.5495 24.7168 19.7269 24.7168 18.6924C24.7168 18.1546 24.8672 17.6761 25.168 17.2568C25.4733 16.833 25.9085 16.5026 26.4736 16.2656C27.0433 16.0286 27.6813 15.9102 28.3877 15.9102C29.0986 15.9102 29.7321 16.04 30.2881 16.2998C30.8441 16.555 31.2747 16.9173 31.5801 17.3867C31.89 17.8561 32.0449 18.3893 32.0449 18.9863H29.9941C29.9941 18.5306 29.8506 18.1774 29.5635 17.9268C29.2764 17.6715 28.873 17.5439 28.3535 17.5439C27.8522 17.5439 27.4626 17.651 27.1846 17.8652C26.9066 18.0749 26.7676 18.3529 26.7676 18.6992C26.7676 19.0228 26.9294 19.2939 27.2529 19.5127C27.5811 19.7314 28.0618 19.9365 28.6953 20.1279C29.862 20.4788 30.7119 20.9141 31.2451 21.4336C31.7783 21.9531 32.0449 22.6003 32.0449 23.375C32.0449 24.2363 31.7191 24.9131 31.0674 25.4053C30.4157 25.8929 29.5384 26.1367 28.4355 26.1367C27.6699 26.1367 26.9727 25.9977 26.3438 25.7197C25.7148 25.4372 25.234 25.0521 24.9014 24.5645C24.5732 24.0768 24.4092 23.5117 24.4092 22.8691H26.4668C26.4668 23.9674 27.123 24.5166 28.4355 24.5166C28.9232 24.5166 29.3037 24.4186 29.5771 24.2227C29.8506 24.0221 29.9873 23.7441 29.9873 23.3887Z" fill="#4BD0A0"/>
</svg>
